<svg width="125" height="148" viewBox="0 0 125 148" fill="none" xmlns="http://www.w3.org/2000/svg">
<path fill-rule="evenodd" clip-rule="evenodd" d="M41.3795 5.69074C41.3795 2.54786 43.8881 0 46.983 0H78.0176C81.1119 0 83.621 2.54786 83.621 5.69074C83.621 8.83373 81.1119 11.3815 78.0176 11.3815H46.983C43.8881 11.3815 41.3795 8.83373 41.3795 5.69074ZM62.5 32.3934C34.1716 32.3934 11.2074 55.7157 11.2074 84.4858C11.2074 113.255 34.1716 136.578 62.5 136.578C90.8284 136.578 113.793 113.255 113.793 84.4858C113.793 55.7157 90.8284 32.3934 62.5 32.3934ZM0 84.4858C0 49.4303 27.9824 21.0119 62.5 21.0119C97.0182 21.0119 125 49.4303 125 84.4858C125 119.541 97.0182 147.959 62.5 147.959C27.9824 147.959 0 119.541 0 84.4858ZM92.0659 54.4564C94.254 56.6792 94.254 60.282 92.0659 62.5042L66.4625 88.5069C64.2744 90.7291 60.7261 90.7291 58.5381 88.5069C56.35 86.2847 56.35 82.6813 58.5381 80.4591L84.1415 54.4564C86.3295 52.2341 89.8778 52.2341 92.0659 54.4564Z" fill="#00875F"/>
</svg>
